@startuml

'skinparam monochrome true
skinparam packageStyle rectangle
skinparam shadowing false
skinparam linetype polyline
'skinparam linetype orto
'skinparam classAttributeIconSize 0
'left to right direction

title US004 - Class Diagram

class TypeOfProperty{
    - string typeofProperty
}

class City {
    - string cityName
}

class State {
    - String stateName 
    + List<District> districts
}

class District {
    - String districtName
    + List<City> cities
}

class Photos {
    - string uri
}

class AvailableEquipment {
    - string equipment
}

class ComissionPercentage {
    - double percentageValue
}


class Contacts {
    - String phoneNumber
    - string emailAdress
}

class User{
    - String email
    - int passportNumber
    - int taxNumber
    - String name
    - Adress adress
    - int phoneNumber

    +User(email,passportNumber,taxNumber,name,phoneNumber)
    +getPassportNumber()
    +getTaxNumber()
    +getEmail()
    +getAdress()
    +getName()
    +getPhoneNumber()
}

class Rent {
    - double contractDuration
}

class AnnouncementRequest {
    - string initialDate
    +addAnnouncementRequest(announcementRequest)
    +validateAnnouncementRequest(announcementRequest)
}

class Business {
    - double requestedPrice
}

class Residence {
    - int numberOfBedrooms
    - int numberOfBathrooms
    - int numberOfParkingSpaces
}

class Store {
    - int ID
    - string Designation
}

class Property {
    - double area
    - double distanceFromCenter
}

class House {
    - boolean basement
    - boolean loft
}

class SunExposure {
    - string direction
}

class Address {
    - string streetName
    - string zipCode
}

class Comission {
    - double value
}

class StateRepository {
    +getState()
    +getDistrictByDiscription(state)
    +getCityByDiscription(district)
}

class UserRepository {
    +getAgentList()
}

class TypeOfPropertyRepository {
    +getTypeOfPropertyList()
}

class SunExposureRepository {
    +getSunExposureDirections()
}

class BusinessRepository {
    +getTypesOfBusinessList()
}

class Repositories {
    -Repositories()
    +getInstance():Repositories
    +getUserRepository()
    +getTypeOfPropertyRepository()
    +getStateRepository()
    +getSunExposureRepository()
    +getBusinessRepository()
}

class AnnouncementRequestUI {

}


class AnnouncementRequestController {
    +getAgentList()
    +getTypeOfPropertyList()
    +getStates()
    +getDistrictByDiscription(state)
    +getCityByDiscription(district)
    +getSunExposureDirections()
    +getTypesOfBusinessList()
    +getDistrictByDescription(state)
    +getCityByDescription(district)
    +createAnnouncementRequest(agentName, propertyType, area, \nstate, district, city, street, zipCode, distanceFromCenter, numberOfBedrooms, \nnumberOfBathrooms, numberOfParkingSpaces, availableEquipment,\n basement, loft, sunExposure, photoArray[], typeOfBusiness, requestedPrice, contractDuration)
    -getUserRepository()
    -getTypeOfPropertyRepository()
    -getStateRepository()
    -getSunExposureRepository()
    -getBusinessRepository()
}

AnnouncementRequestUI ..> AnnouncementRequestController
AnnouncementRequestController ..> StateRepository
Repositories --> StateRepository: stateRepository

AnnouncementRequestController ..> UserRepository
Repositories --> UserRepository: userRepository

AnnouncementRequestController ..> TypeOfPropertyRepository
Repositories --> TypeOfPropertyRepository: typeOfPropertyRepository

AnnouncementRequestController ..> SunExposureRepository
Repositories --> SunExposureRepository: sunExposureRepository

AnnouncementRequestController ..> BusinessRepository
Repositories --> BusinessRepository: businessRepository

Repositories -> Repositories:instance
Residence <|-- House
Property <|-- Residence
SunExposure "1" -up-- "1" House: contains <
Address "1" -right-- "1" Property: has <
User "1" -down-- "*" Property: has >
User "1" -right- "1" Store: contacts >
Agent "*" -left-- "1" Store: has <
AvailableEquipment "*" -left-- "1" Residence: contains <
User "1" -up-- "1" Business: defines >
Store "1" -right-- "1" Contacts: has >
Comission "1" -down-- "1" Agent: defines <
Comission "1" -up-- "1" Business: contains <
Comission <|-- ComissionPercentage
Business <|-- Rent
Property "1" -right-- "1..30" Photos: has >
User "1" -left-- "1" AnnouncementRequest: makes >
Business "1" -left-- "1" AnnouncementRequest: gets <
AnnouncementRequest "1" -left-- "1" Property: advertises >
TypeOfProperty "1" -down-- "1" Property: defines >
State "1" -left-- "*" District: has >
District "1" -left-- "*" City: has >
Address "*" -left-- "1" State: has <

@enduml