@startuml

'skinparam monochrome true
skinparam packageStyle rectangle
skinparam shadowing false
skinparam linetype polyline
'skinparam linetype orto
'skinparam classAttributeIconSize 0
'left to right direction

class State {
    - String stateName
    +addState(stateName)
}

class District {
    - String districtName
    +addDistrict(districtName)
}

class City {
    - String cityName
    +addCity(cityName)
}

class addLocationController {
    +addState(stateName)
    +addDistrict(districtName)
    +addCity(cityName)
}

class addLocationUI {

}

addLocationController ..> State : State
addLocationController ..> District : District
addLocationController ..> City : City
addLocationUI .right.> addLocationController
District "1" -right- "*" City : has >
State "1" -right- "*" District : has >

@enduml